<?xml version="1.0" encoding="UTF-8" standalone="no"?>
<!-- Created with Inkscape (http://www.inkscape.org/) -->

<svg
   width="110.32473mm"
   height="45.664207mm"
   viewBox="0 0 110.32473 45.664207"
   version="1.1"
   id="svg1"
   xmlns="http://www.w3.org/2000/svg"
   xmlns:svg="http://www.w3.org/2000/svg">
  <defs
     id="defs1" />
  <g
     id="layer1"
     transform="translate(0,-0.36531365)">
    <rect
       style="fill:none;stroke-width:0.267704"
       id="rect1"
       width="110.32472"
       height="45.664207"
       x="0"
       y="0.36531365" />
    <path
       d="m 12.1219,13.268368 q 0,-0.541867 -0.158045,-1.016001 -0.146756,-0.485422 -0.451556,-0.846667 -0.3048,-0.361245 -0.778934,-0.564445 -0.462845,-0.214489 -1.0837347,-0.214489 -1.2079123,0 -1.9078241,0.688623 -0.6886229,0.688623 -0.8805343,1.952979 z m -5.3170726,1.682047 q 0.067733,0.891823 0.3160893,1.546579 0.2483558,0.643467 0.6547562,1.072445 0.4064004,0.41769 0.9595565,0.632179 0.564445,0.2032 1.241779,0.2032 0.6773336,0 1.1627566,-0.158045 0.496712,-0.158044 0.857957,-0.349955 0.372533,-0.191912 0.643467,-0.349956 0.282222,-0.158045 0.541867,-0.158045 0.349956,0 0.51929,0.259645 l 0.801511,1.016001 q -0.462844,0.541867 -1.038578,0.914401 -0.575734,0.361244 -1.207913,0.587022 -0.620889,0.21449 -1.275645,0.304801 -0.643468,0.09031 -1.2530684,0.09031 -1.2079123,0 -2.2464911,-0.395112 Q 6.4435826,19.759485 5.6759374,18.980551 4.9082922,18.190328 4.4680251,17.03886 4.0277579,15.876103 4.0277579,14.352102 q 0,-1.185335 0.3838227,-2.223914 0.3838226,-1.049867 1.0950233,-1.817513 0.7224896,-0.7789337 1.7497796,-1.2304897 1.0385788,-0.451556 2.3368023,-0.451556 1.0950232,0 2.0207132,0.3499559 0.92569,0.3499559 1.591735,1.0272898 0.666045,0.666045 1.038579,1.64818 0.383822,0.970845 0.383822,2.223913 0,0.632178 -0.135466,0.857956 -0.135467,0.21449 -0.51929,0.21449 z M 26.695879,8.8092527 V 20.391665 h -1.704624 q -0.553156,0 -0.699912,-0.508001 l -0.191911,-0.92569 q -0.711201,0.72249 -1.569157,1.174046 -0.857957,0.440267 -2.020713,0.440267 -0.948268,0 -1.682046,-0.316089 -0.72249,-0.327378 -1.219202,-0.914401 -0.496711,-0.587023 -0.756356,-1.388535 -0.248356,-0.812801 -0.248356,-1.783646 V 8.8092527 h 2.788359 v 7.3603633 q 0,1.061156 0.485422,1.648179 0.496712,0.575734 1.478846,0.575734 0.72249,0 1.354668,-0.316089 0.632179,-0.327378 1.196624,-0.891823 V 8.8092527 Z m 5.384788,2.0094243 q 0.541867,-1.0385788 1.286935,-1.6256017 0.745067,-0.5983117 1.761068,-0.5983117 0.801512,0 1.286935,0.3499559 l -0.180623,2.0884465 q -0.05644,0.2032 -0.169333,0.293512 -0.1016,0.07902 -0.282223,0.07902 -0.169333,0 -0.508,-0.05645 -0.327378,-0.05644 -0.643468,-0.05644 -0.462845,0 -0.824089,0.135467 -0.361245,0.135466 -0.654757,0.395111 -0.282222,0.248356 -0.508,0.609601 -0.214489,0.361245 -0.406401,0.824089 v 7.134586 H 29.450353 V 8.8092527 h 1.636891 q 0.428978,0 0.598311,0.1580446 0.169334,0.1467557 0.225778,0.5418672 z M 42.669642,8.6286303 q 1.286934,0 2.336802,0.4176893 1.061157,0.4176893 1.806224,1.1853344 0.756356,0.767645 1.162757,1.873958 0.4064,1.106312 0.4064,2.472269 0,1.377246 -0.4064,2.483558 -0.406401,1.106312 -1.162757,1.885246 -0.745067,0.778934 -1.806224,1.196624 -1.049868,0.417689 -2.336802,0.417689 -1.298224,0 -2.359381,-0.417689 -1.061156,-0.41769 -1.817513,-1.196624 -0.745067,-0.778934 -1.162756,-1.885246 -0.406401,-1.106312 -0.406401,-2.483558 0,-1.365957 0.406401,-2.472269 0.417689,-1.106313 1.162756,-1.873958 0.756357,-0.7676451 1.817513,-1.1853344 1.061157,-0.4176893 2.359381,-0.4176893 z m 0,9.7874767 q 1.444979,0 2.133602,-0.970845 0.699912,-0.970846 0.699912,-2.844803 0,-1.873958 -0.699912,-2.856092 -0.688623,-0.982135 -2.133602,-0.982135 -1.467558,0 -2.178758,0.993424 -0.699912,0.982134 -0.699912,2.844803 0,1.862668 0.699912,2.844803 0.7112,0.970845 2.178758,0.970845 z M 60.596379,8.8092527 56.001796,20.391665 H 53.473082 L 48.8785,8.8092527 h 2.302936 q 0.316089,0 0.519289,0.1467557 0.214489,0.1467557 0.282223,0.3725337 L 54.21815,15.51486 q 0.180622,0.541867 0.316089,1.061156 0.135467,0.51929 0.237067,1.038579 0.112889,-0.519289 0.248356,-1.038579 0.135467,-0.519289 0.327378,-1.061156 l 2.280358,-6.1863179 q 0.07902,-0.225778 0.282222,-0.3725337 0.2032,-0.1467557 0.485423,-0.1467557 z m 4.368803,0 V 20.391665 H 62.165535 V 8.8092527 Z m 0.383822,-3.3753812 q 0,0.3612448 -0.146755,0.677334 -0.146756,0.3160892 -0.395112,0.5531561 -0.237067,0.237067 -0.564445,0.3838227 -0.327378,0.1354668 -0.699912,0.1354668 -0.361244,0 -0.688622,-0.1354668 -0.31609,-0.1467557 -0.553157,-0.3838227 -0.237067,-0.2370669 -0.383822,-0.5531561 -0.135467,-0.3160892 -0.135467,-0.677334 0,-0.3725337 0.135467,-0.6999118 0.146755,-0.3273781 0.383822,-0.564445 0.237067,-0.2370669 0.553157,-0.3725337 0.327378,-0.1467558 0.688622,-0.1467558 0.372534,0 0.699912,0.1467558 0.327378,0.1354668 0.564445,0.3725337 0.248356,0.2370669 0.395112,0.564445 0.146755,0.3273781 0.146755,0.6999118 z m 9.527827,5.6331615 q -0.112889,0.180622 -0.237066,0.259645 -0.124178,0.06773 -0.31609,0.06773 -0.2032,0 -0.440267,-0.112889 -0.225778,-0.112889 -0.530578,-0.248356 -0.3048,-0.146756 -0.699912,-0.259645 -0.383822,-0.112889 -0.914401,-0.112889 -0.82409,0 -1.298223,0.349956 -0.462845,0.349956 -0.462845,0.914401 0,0.372534 0.237067,0.632179 0.248355,0.248355 0.643467,0.440267 0.4064,0.191911 0.914401,0.349956 0.508,0.146755 1.02729,0.327378 0.530578,0.180622 1.038579,0.417689 0.508,0.225778 0.903112,0.587023 0.4064,0.349956 0.643467,0.846667 0.248356,0.496712 0.248356,1.196624 0,0.835379 -0.3048,1.546579 -0.293512,0.699912 -0.880535,1.219201 -0.587023,0.508001 -1.456268,0.801512 -0.857956,0.282223 -1.986846,0.282223 -0.598312,0 -1.174046,-0.112889 -0.564445,-0.1016 -1.095023,-0.293512 -0.51929,-0.191911 -0.970846,-0.451556 -0.440267,-0.259644 -0.778934,-0.564445 l 0.643467,-1.061156 q 0.124178,-0.191911 0.293512,-0.293512 0.169333,-0.1016 0.428978,-0.1016 0.259645,0 0.485423,0.146756 0.237067,0.146756 0.541867,0.316089 0.3048,0.169334 0.711201,0.316089 0.417689,0.146756 1.049867,0.146756 0.496712,0 0.846668,-0.112889 0.361245,-0.124178 0.587023,-0.316089 0.237067,-0.191911 0.338667,-0.440267 0.112889,-0.259645 0.112889,-0.530579 0,-0.4064 -0.248356,-0.666045 -0.237067,-0.259644 -0.643467,-0.451556 -0.395112,-0.191911 -0.914401,-0.338667 -0.508001,-0.158044 -1.049868,-0.338667 -0.530578,-0.180622 -1.049868,-0.417689 -0.508,-0.248356 -0.914401,-0.620889 -0.395111,-0.372534 -0.643467,-0.914401 -0.237067,-0.541868 -0.237067,-1.309513 0,-0.711201 0.282223,-1.354668 0.282222,-0.643467 0.824089,-1.1176011 0.553156,-0.4854227 1.365957,-0.7676452 0.82409,-0.2935114 1.896536,-0.2935114 1.196623,0 2.178757,0.3951115 0.982135,0.3951115 1.636891,1.0385792 z m 5.74607,-2.2577803 V 20.391665 H 77.823253 V 8.8092527 Z m 0.383822,-3.3753812 q 0,0.3612448 -0.146756,0.677334 -0.146755,0.3160892 -0.395111,0.5531561 -0.237067,0.237067 -0.564445,0.3838227 -0.327378,0.1354668 -0.699912,0.1354668 -0.361245,0 -0.688623,-0.1354668 Q 78.195787,6.9014286 77.95872,6.6643616 77.721653,6.4272947 77.574897,6.1112055 77.439431,5.7951163 77.439431,5.4338715 q 0,-0.3725337 0.135466,-0.6999118 0.146756,-0.3273781 0.383823,-0.564445 0.237067,-0.2370669 0.553156,-0.3725337 0.327378,-0.1467558 0.688623,-0.1467558 0.372534,0 0.699912,0.1467558 0.327378,0.1354668 0.564445,0.3725337 0.248356,0.2370669 0.395111,0.564445 0.146756,0.3273781 0.146756,0.6999118 z m 7.586129,3.1947588 q 1.286934,0 2.336802,0.4176893 1.061157,0.4176893 1.806224,1.1853344 0.756356,0.767645 1.162757,1.873958 0.4064,1.106312 0.4064,2.472269 0,1.377246 -0.4064,2.483558 -0.406401,1.106312 -1.162757,1.885246 -0.745067,0.778934 -1.806224,1.196624 -1.049868,0.417689 -2.336802,0.417689 -1.298224,0 -2.359381,-0.417689 -1.061156,-0.41769 -1.817512,-1.196624 -0.745068,-0.778934 -1.162757,-1.885246 -0.406401,-1.106312 -0.406401,-2.483558 0,-1.365957 0.406401,-2.472269 0.417689,-1.106313 1.162757,-1.873958 0.756356,-0.7676451 1.817512,-1.1853344 1.061157,-0.4176893 2.359381,-0.4176893 z m 0,9.7874767 q 1.444979,0 2.133602,-0.970845 0.699912,-0.970846 0.699912,-2.844803 0,-1.873958 -0.699912,-2.856092 -0.688623,-0.982135 -2.133602,-0.982135 -1.467557,0 -2.178758,0.993424 -0.699912,0.982134 -0.699912,2.844803 0,1.862668 0.699912,2.844803 0.711201,0.970845 2.178758,0.970845 z m 10.453507,-8.184453 q 0.349956,-0.3499557 0.733778,-0.6434672 0.395113,-0.3048003 0.824093,-0.5080005 0.44026,-0.2144891 0.93698,-0.3273781 0.49671,-0.1241779 1.08373,-0.1241779 0.94827,0 1.68205,0.3273781 0.73377,0.3160892 1.2192,0.9031121 0.49671,0.5757335 0.74507,1.3885345 0.25964,0.801512 0.25964,1.772358 v 7.371652 h -2.78836 v -7.371652 q 0,-1.061157 -0.48542,-1.636891 -0.48542,-0.587023 -1.47885,-0.587023 -0.72249,0 -1.35467,0.327378 -0.632174,0.327378 -1.196619,0.891823 v 8.376365 H 96.438623 V 8.8092527 h 1.704624 q 0.541867,0 0.711201,0.5080005 z"
       id="text1"
       style="font-weight:bold;font-size:22.5778px;font-family:Lato;-inkscape-font-specification:'Lato Bold';fill:#e5e5e5;stroke-width:0.264583"
       aria-label="eurovision" />
    <circle
       style="display:inline;fill:#5365a6;fill-opacity:1;stroke-width:0.264583"
       id="path1"
       cx="10.027758"
       cy="33.720871"
       r="6" />
    <path
       style="font-weight:bold;font-size:22.5778px;font-family:Lato;-inkscape-font-specification:'Lato Bold';fill:#5365a6;stroke-width:0.264583"
       d="m 24.412802,36.602682 q 0.474134,0.575734 1.02729,0.812801 0.564445,0.237067 1.219202,0.237067 0.632178,0 1.140178,-0.237067 0.508001,-0.237067 0.857957,-0.72249 0.361245,-0.485422 0.553156,-1.219201 0.191911,-0.745067 0.191911,-1.749779 0,-1.016001 -0.169333,-1.715913 -0.158045,-0.711201 -0.462845,-1.151468 -0.3048,-0.440267 -0.745068,-0.643467 -0.428978,-0.203201 -0.982134,-0.203201 -0.869245,0 -1.478846,0.372534 -0.6096,0.361245 -1.151468,1.02729 z m -0.146755,-6.999118 q 0.7112,-0.801512 1.614312,-1.298223 0.903112,-0.496712 2.122314,-0.496712 0.948267,0 1.727201,0.395111 0.790223,0.395112 1.354668,1.151468 0.575734,0.745068 0.880535,1.85138 0.316089,1.095023 0.316089,2.517425 0,1.298223 -0.349956,2.404535 -0.349956,1.106313 -1.004712,1.919114 -0.643467,0.8128 -1.569157,1.275645 -0.914401,0.451556 -2.05458,0.451556 -0.970846,0 -1.659469,-0.293511 -0.688622,-0.3048 -1.23049,-0.835379 v 4.741338 H 21.624444 V 28.023118 h 1.704624 q 0.541867,0 0.711201,0.508001 z m 13.004831,-6.77334 V 39.60553 H 34.48252 V 22.830224 Z m 8.906961,11.830767 q -1.207913,0.05644 -2.032002,0.21449 -0.82409,0.146755 -1.320802,0.383822 -0.496711,0.237067 -0.711201,0.553156 -0.214489,0.316089 -0.214489,0.688623 0,0.733779 0.428979,1.049868 0.440267,0.316089 1.140179,0.316089 0.857956,0 1.478845,-0.3048 0.632179,-0.316089 1.230491,-0.948268 z m -6.389518,-5.02356 q 1.998135,-1.828802 4.809072,-1.828802 1.016001,0 1.817513,0.338667 0.801511,0.327378 1.354668,0.92569 0.553156,0.587023 0.835378,1.411112 0.293512,0.82409 0.293512,1.806224 v 7.315208 h -1.264357 q -0.395112,0 -0.609601,-0.112889 -0.214489,-0.124178 -0.338667,-0.485423 l -0.248356,-0.835379 q -0.440267,0.395112 -0.857956,0.699912 -0.417689,0.293512 -0.869245,0.496712 -0.451556,0.2032 -0.970846,0.3048 -0.508,0.112889 -1.12889,0.112889 -0.733778,0 -1.354668,-0.191911 -0.620889,-0.2032 -1.072446,-0.598312 -0.451556,-0.395111 -0.699911,-0.982134 -0.248356,-0.587023 -0.248356,-1.365957 0,-0.440267 0.146756,-0.869245 0.146755,-0.440268 0.474133,-0.835379 0.338667,-0.395112 0.869246,-0.745067 0.530578,-0.349956 1.298223,-0.609601 0.778934,-0.259645 1.806224,-0.417689 1.02729,-0.169334 2.348092,-0.203201 v -0.677334 q 0,-1.162756 -0.496712,-1.715913 -0.496712,-0.564445 -1.43369,-0.564445 -0.677334,0 -1.12889,0.158045 -0.440268,0.158045 -0.778935,0.361245 -0.338667,0.191911 -0.620889,0.349956 -0.270934,0.158044 -0.609601,0.158044 -0.293511,0 -0.496711,-0.146755 -0.2032,-0.158045 -0.327378,-0.361245 z m 20.026503,0.835378 q -0.124178,0.158045 -0.248356,0.248356 -0.112889,0.09031 -0.338667,0.09031 -0.214489,0 -0.41769,-0.124178 -0.2032,-0.135466 -0.485422,-0.293511 -0.282223,-0.169333 -0.677334,-0.293511 -0.383823,-0.135467 -0.959557,-0.135467 -0.733778,0 -1.286935,0.270933 -0.553156,0.259645 -0.925689,0.756357 -0.361245,0.496711 -0.541868,1.207912 -0.180622,0.699912 -0.180622,1.591735 0,0.92569 0.191911,1.64818 0.203201,0.722489 0.575734,1.219201 0.372534,0.485423 0.903112,0.745067 0.530579,0.248356 1.196624,0.248356 0.666045,0 1.072445,-0.158045 0.41769,-0.169333 0.699912,-0.361244 0.282223,-0.203201 0.485423,-0.361245 0.214489,-0.169334 0.474134,-0.169334 0.338667,0 0.508,0.259645 l 0.801512,1.016001 q -0.462845,0.541867 -1.004712,0.914401 -0.541867,0.361245 -1.12889,0.587023 -0.575734,0.214489 -1.196624,0.3048 -0.6096,0.09031 -1.219201,0.09031 -1.072445,0 -2.020713,-0.395111 -0.948268,-0.406401 -1.659468,-1.174046 -0.711201,-0.767645 -1.12889,-1.873957 -0.406401,-1.117601 -0.406401,-2.540003 0,-1.275646 0.361245,-2.35938 0.372534,-1.095023 1.083734,-1.885246 0.711201,-0.801512 1.761069,-1.253068 1.049868,-0.451556 2.415825,-0.451556 1.298223,0 2.269069,0.417689 0.982134,0.417689 1.761068,1.196623 z m 9.84391,2.009425 q 0,-0.541868 -0.158045,-1.016001 -0.146756,-0.485423 -0.451556,-0.846668 -0.3048,-0.361245 -0.778934,-0.564445 -0.462845,-0.214489 -1.083734,-0.214489 -1.207913,0 -1.907825,0.688623 -0.688623,0.688623 -0.880534,1.95298 z m -5.317072,1.682046 q 0.06773,0.891823 0.316089,1.546579 0.248356,0.643467 0.654756,1.072446 0.406401,0.417689 0.959557,0.632178 0.564445,0.2032 1.241779,0.2032 0.677334,0 1.162756,-0.158044 0.496712,-0.158045 0.857957,-0.349956 0.372534,-0.191912 0.643467,-0.349956 0.282223,-0.158045 0.541867,-0.158045 0.349956,0 0.51929,0.259645 l 0.801512,1.016001 q -0.462845,0.541867 -1.038579,0.914401 -0.575734,0.361245 -1.207912,0.587023 -0.62089,0.214489 -1.275646,0.3048 -0.643468,0.09031 -1.253068,0.09031 -1.207912,0 -2.246491,-0.395111 -1.038579,-0.406401 -1.806224,-1.185335 -0.767646,-0.790223 -1.207913,-1.941691 -0.440267,-1.162756 -0.440267,-2.686758 0,-1.185334 0.383823,-2.223913 0.383822,-1.049868 1.095023,-1.817513 0.72249,-0.778934 1.74978,-1.23049 1.038579,-0.451556 2.336802,-0.451556 1.095023,0 2.020713,0.349956 0.92569,0.349955 1.591735,1.027289 0.666045,0.666046 1.038579,1.64818 0.383823,0.970845 0.383823,2.223913 0,0.632179 -0.135467,0.857957 -0.135467,0.214489 -0.51929,0.214489 z"
       id="text1-9"
       aria-label="place" />
  </g>
</svg>
